<mxfile host="Electron" agent="Mozilla/5.0 (Windows NT 10.0; Win64; x64) AppleWebKit/537.36 (KHTML, like Gecko) draw.io/24.7.17 Chrome/128.0.6613.36 Electron/32.0.1 Safari/537.36" version="24.7.17">
  <diagram name="Page-1" id="qnYGtCQ6HmbTMiV9DPt-">
    <mxGraphModel dx="636" dy="381" grid="1" gridSize="10" guides="1" tooltips="1" connect="1" arrows="1" fold="1" page="1" pageScale="1" pageWidth="850" pageHeight="1100" math="1" shadow="0">
      <root>
        <mxCell id="0" />
        <mxCell id="1" parent="0" />
        <mxCell id="MynP2UiLF1FuOIN8Dgla-8" style="edgeStyle=orthogonalEdgeStyle;rounded=0;orthogonalLoop=1;jettySize=auto;html=1;entryX=0.5;entryY=0;entryDx=0;entryDy=0;" edge="1" parent="1" source="mbtqhHkirMsXsLDekw4L-2" target="MynP2UiLF1FuOIN8Dgla-6">
          <mxGeometry relative="1" as="geometry" />
        </mxCell>
        <mxCell id="MynP2UiLF1FuOIN8Dgla-9" style="edgeStyle=orthogonalEdgeStyle;rounded=0;orthogonalLoop=1;jettySize=auto;html=1;entryX=0.5;entryY=0;entryDx=0;entryDy=0;" edge="1" parent="1" source="mbtqhHkirMsXsLDekw4L-2" target="MynP2UiLF1FuOIN8Dgla-7">
          <mxGeometry relative="1" as="geometry" />
        </mxCell>
        <mxCell id="mbtqhHkirMsXsLDekw4L-2" value="Ma trận \(perfect\_image\)&lt;br&gt;Kích thước mẫu&lt;br&gt;\(2n_{samples}\)" style="whiteSpace=wrap;html=1;rounded=0;" parent="1" vertex="1">
          <mxGeometry x="460" y="40" width="140" height="60" as="geometry" />
        </mxCell>
        <mxCell id="MynP2UiLF1FuOIN8Dgla-2" value="" style="edgeStyle=orthogonalEdgeStyle;rounded=0;orthogonalLoop=1;jettySize=auto;html=1;" edge="1" parent="1" source="mbtqhHkirMsXsLDekw4L-8" target="MynP2UiLF1FuOIN8Dgla-1">
          <mxGeometry relative="1" as="geometry" />
        </mxCell>
        <mxCell id="MynP2UiLF1FuOIN8Dgla-5" value="" style="edgeStyle=orthogonalEdgeStyle;rounded=0;orthogonalLoop=1;jettySize=auto;html=1;" edge="1" parent="1" source="mbtqhHkirMsXsLDekw4L-8" target="MynP2UiLF1FuOIN8Dgla-4">
          <mxGeometry relative="1" as="geometry" />
        </mxCell>
        <mxCell id="mbtqhHkirMsXsLDekw4L-8" value="Ma trận \(noisy\_interp\)&lt;br&gt;Kích thước mẫu&lt;br&gt;\(2n_{samples}\)" style="whiteSpace=wrap;html=1;rounded=0;" parent="1" vertex="1">
          <mxGeometry x="100" y="40" width="140" height="60" as="geometry" />
        </mxCell>
        <mxCell id="MynP2UiLF1FuOIN8Dgla-1" value="Tập \(train\_data\)&lt;br&gt;Kích thước mẫu&lt;br&gt;\(2n_{samples}\cdot (1-test\_size)\)" style="whiteSpace=wrap;html=1;rounded=0;" vertex="1" parent="1">
          <mxGeometry y="140" width="160" height="60" as="geometry" />
        </mxCell>
        <mxCell id="MynP2UiLF1FuOIN8Dgla-4" value="Tập \(val\_data\)&lt;br&gt;Kích thước mẫu&lt;br&gt;\(2n_{samples}\cdot test\_size\)" style="whiteSpace=wrap;html=1;rounded=0;" vertex="1" parent="1">
          <mxGeometry x="180" y="140" width="140" height="60" as="geometry" />
        </mxCell>
        <mxCell id="MynP2UiLF1FuOIN8Dgla-6" value="Tập \(train\_label\)&lt;br&gt;Kích thước mẫu&lt;br&gt;\(2n_{samples}\cdot (1-test\_size)\)" style="whiteSpace=wrap;html=1;rounded=0;" vertex="1" parent="1">
          <mxGeometry x="360" y="140" width="160" height="60" as="geometry" />
        </mxCell>
        <mxCell id="MynP2UiLF1FuOIN8Dgla-7" value="Tập \(val\_label\)&lt;br&gt;Kích thước mẫu&lt;br&gt;\(2n_{samples}\cdot test\_size\)" style="whiteSpace=wrap;html=1;rounded=0;" vertex="1" parent="1">
          <mxGeometry x="540" y="140" width="140" height="60" as="geometry" />
        </mxCell>
      </root>
    </mxGraphModel>
  </diagram>
</mxfile>
